<svg class="icon" viewBox="0 0 1025 1024" version="1.1" xmlns="http://www.w3.org/2000/svg"
     width="12" height="12">
    <path d="M599.67069 928.618102a429.057029 429.057029 0 0 1-389.566959-115.244367 419.83748 419.83748 0 0 1-31.845444-564.355416v78.635156a43.293884 43.293884 0 0 0 86.586768 0V157.705782a37.531166 37.531166 0 0 0-12.715378-30.425513 41.487972 41.487972 0 0 0-30.731498-12.67638H50.796517a43.101893 43.101893 0 1 0 0 86.241784h59.851075a505.465294 505.465294 0 0 0 38.184134 673.454084 513.109921 513.109921 0 0 0 469.777038 138.293241 67.763688 67.763688 0 0 0 19.208061-10.141505 41.987948 41.987948 0 0 0 0-59.620086 33.95834 33.95834 0 0 0-38.184133-13.944318z m375.583643-103.989917H917.785141a508.807131 508.807131 0 0 0-43.292884-674.721022A516.528754 516.528754 0 0 0 436.560662 5.351228a38.031141 38.031141 0 0 0-28.004631 12.677381 41.987948 41.987948 0 0 0 0 59.620086 39.68306 39.68306 0 0 0 40.72001 10.141504A426.407159 426.407159 0 0 1 812.144305 206.875379a419.876478 419.876478 0 0 1 31.846443 564.355416v-78.636157a43.293884 43.293884 0 0 0-86.587768 0v169.948694a37.493167 37.493167 0 0 0 12.753377 30.424512 41.449974 41.449974 0 0 0 30.732498 12.677381h170.601662a43.639867 43.639867 0 0 0 43.292883-43.101893 35.764252 35.764252 0 0 0-39.490069-38.031142z"
          fill="#ffffff"></path>
</svg>