<svg class="icon" viewBox="0 0 1137 1024" version="1.1" xmlns="http://www.w3.org/2000/svg"
     width="16" height="16">
    <path d="M14.222222 512C14.222222 185.002667 321.251556 9.671111 658.944 47.104c271.473778 30.151111 464.611556 214.129778 464.611556 440.661333 0 120.035556-60.586667 172.828444-180.110223 205.198223-8.135111 2.218667-15.815111 4.152889-30.776889 7.964444-51.939556 13.368889-72.590222 22.243556-81.294222 34.702222-10.865778 15.530667-11.719111 26.567111-6.428444 60.814222 1.877333 12.174222 2.616889 17.464889 3.356444 24.803556 6.030222 63.374222-20.081778 111.160889-96.028444 154.453333-87.438222 49.948444-265.557333 24.120889-421.034667-55.523555C130.844444 827.847111 14.222222 683.463111 14.222222 512zM649.500444 131.982222C356.181333 99.328 99.555556 245.930667 99.555556 512c0 134.257778 95.971556 253.041778 250.538666 332.231111 132.494222 67.868444 283.249778 89.713778 339.854222 57.400889 47.445333-27.079111 56.149333-43.064889 53.361778-72.305778a322.56 322.56 0 0 0-2.673778-19.911111c-8.419556-54.158222-6.144-84.195556 20.878223-122.766222 25.031111-35.84 57.116444-49.607111 129.877333-68.323556 15.075556-3.868444 22.186667-5.688889 29.752889-7.736889 86.641778-23.438222 117.077333-49.948444 117.077333-122.88 0-179.768889-157.866667-330.126222-388.721778-355.783111zM241.777778 430.762667a71.111111 71.111111 0 1 1 0 142.222222 71.111111 71.111111 0 0 1 0-142.222222z m455.111111-170.666667a71.111111 71.111111 0 1 1 0 142.222222 71.111111 71.111111 0 0 1 0-142.222222z m-284.444445-4.096a71.111111 71.111111 0 1 1 0 142.222222 71.111111 71.111111 0 0 1 0-142.222222z"
          fill="#ffffff"></path>
</svg>