<svg class="icon" viewBox="0 0 1024 1024" version="1.1" xmlns="http://www.w3.org/2000/svg"
     width="16" height="16">
    <path d="M936.421 502.092c8.485 5.479 14.081 15.031 14.055 25.878-0.026 10.848-5.666 20.374-14.177 25.813l-411.042 262.694c-9.145 5.846-21.111 6.639-31.3 1.059s-15.963-16.090-15.963-26.944v-156.346l-353.712 188.386c-9.201 4.9-20.667 4.979-30.254-0.777s-14.907-15.913-14.907-26.338v-538.042c0-10.447 5.344-20.624 14.964-26.371s21.114-5.631 30.313-0.681l353.596 190.277v-158.234c0-10.88 5.803-21.41 16.027-26.978s22.219-4.731 31.358 1.172l411.042 265.434z"
          fill="#ffffff"></path>
</svg>