<svg class="icon" viewBox="0 0 1024 1024" version="1.1" xmlns="http://www.w3.org/2000/svg"
     width="16" height="16">
    <path d="M547.328 695.588571h-69.412571a17.042286 17.042286 0 0 0-17.115429 17.115429v69.412571c0 9.435429 7.68 17.115429 17.115429 17.115429h70.070857a17.115429 17.115429 0 0 0 17.042285-17.115429v-69.485714a18.139429 18.139429 0 0 0-17.700571-17.042286z m92.891429-428.982857c-32.329143-28.233143-75.264-42.349714-126.976-42.349714-48.859429 0-90.697143 14.628571-123.099429 42.934857-32.329143 28.818286-51.2 68.315429-55.296 116.589714a15.798857 15.798857 0 0 0 4.681143 12.873143 17.408 17.408 0 0 0 12.946286 5.339429h65.974857a16.749714 16.749714 0 0 0 17.042285-14.701714c8.265143-54.125714 33.572571-79.506286 78.848-79.506286 22.966857 0 41.764571 7.094857 55.369143 20.626286 14.116571 13.604571 20.553143 30.646857 20.553143 52.443428a59.977143 59.977143 0 0 1-7.606857 29.988572c-3.510857 7.094857-14.116571 20.626286-44.763429 45.933714-27.648 23.478857-47.030857 46.518857-58.221714 68.242286-11.190857 22.381714-16.457143 54.784-16.457143 100.059428 0 9.508571 7.606857 17.042286 17.042286 17.042286h59.392a17.042286 17.042286 0 0 0 17.042286-17.042286c0-36.571429 4.242286-53.540571 7.68-61.220571 3.584-7.606857 14.774857-22.308571 46.518857-48.786286 29.403429-24.137143 50.029714-47.104 61.147428-68.315429a149.942857 149.942857 0 0 0 17.115429-69.997714c1.170286-44.836571-15.872-81.334857-48.859429-110.153143z"
          fill="#ffffff" opacity=".704"></path>
    <path d="M512 0C229.522286 0 0 229.522286 0 512s229.522286 512 512 512 512-229.522286 512-512a512 512 0 0 0-512-512z m0 941.641143A429.714286 429.714286 0 0 1 82.432 512 429.714286 429.714286 0 0 1 512 82.432a429.714286 429.714286 0 0 1 0 859.209143z"
          fill="#ffffff" opacity=".704"></path>
</svg>