<svg class="icon" viewBox="0 0 1024 1024" version="1.1" xmlns="http://www.w3.org/2000/svg"
     width="16" height="16">
    <path d="M523.77 172.3L223.36 483.64a35.34 35.34 0 0 0-9.77 24.89c-0.1 1.22-0.67 2.25-0.67 3.47a35.47 35.47 0 0 0 3 14.11 34.43 34.43 0 0 0 7.41 12.07l268.83 280.93a32.23 32.23 0 0 0 47 0 35.76 35.76 0 0 0 0.07-49.06L325.38 546.66h585.39c18.37 0 33.23-15.53 33.23-34.66s-14.85-34.67-33.23-34.67h-587l246.85-255.87a35.72 35.72 0 0 0 0.13-49 32.2 32.2 0 0 0-47-0.14z m-377.3-41.63v762.65c0 19.14-14.88 34.67-33.22 34.67S80 912.47 80 893.32V130.67C80 111.5 94.89 96 113.24 96s33.22 15.49 33.22 34.66z m0 0"
          fill="#ffffff"></path>
</svg>