<svg class="icon" viewBox="0 0 1024 1024" version="1.1" xmlns="http://www.w3.org/2000/svg"
     width="20" height="20">
    <path d="M512.004605 254.131955c-11.864212 0-21.441335-9.625218-21.441335-21.441335l0-128.936581c0-11.879562 9.577123-21.537526 21.441335-21.537526 11.879562 0 21.537526 9.657964 21.537526 21.537526l0 128.936581C533.54213 244.506736 523.884167 254.131955 512.004605 254.131955L512.004605 254.131955zM512.004605 941.777347c-11.864212 0-21.441335-9.609869-21.441335-21.441335l0-128.936581c0-11.864212 9.577123-21.521153 21.441335-21.521153 11.879562 0 21.537526 9.657964 21.537526 21.521153l0 128.936581C533.54213 932.168502 523.884167 941.777347 512.004605 941.777347L512.004605 941.777347zM232.690108 533.526269l-128.936581 0c-11.879562 0-21.537526-9.641591-21.537526-21.521153 0-11.864212 9.657964-21.441335 21.537526-21.441335l128.936581 0c11.799744 0 21.441335 9.577123 21.441335 21.441335C254.131443 523.884678 244.489852 533.526269 232.690108 533.526269L232.690108 533.526269zM920.351873 533.526269l-128.936581 0c-11.879562 0-21.537526-9.641591-21.537526-21.521153 0-11.864212 9.657964-21.441335 21.537526-21.441335l128.936581 0c11.799744 0 21.441335 9.577123 21.441335 21.441335C941.793208 523.884678 932.151617 533.526269 920.351873 533.526269L920.351873 533.526269zM920.351873 533.383006c-11.879562 0-21.537526-9.593496-21.537526-21.473057-0.031722-213.215056-173.594687-386.713552-386.809743-386.713552-213.295897 0-386.809743 173.546591-386.809743 386.809743 0 213.279524 173.514869 386.79337 386.809743 386.79337 143.886061 0 274.997168-79.258135 342.27955-206.900234 5.500271-10.505261 18.563798-14.470573 29.004591-9.002025 10.536984 5.516644 14.613836 18.531052 9.033747 29.004591C817.604768 853.709569 671.879825 941.777347 512.004605 941.777347c-236.959853 0-429.788603-192.781678-429.788603-429.77223 0-236.959853 192.829773-429.788603 429.788603-429.788603 236.94348 0 429.756881 192.765305 429.788603 429.692413C941.793208 523.789511 932.151617 533.383006 920.351873 533.383006L920.351873 533.383006z"
          fill="#ffffff"></path>
</svg>