<svg class="icon" viewBox="0 0 1024 1024" version="1.1" xmlns="http://www.w3.org/2000/svg"
     width="12" height="12">
    <path d="M625.6 386.2c55.6-45.9 110.8-68.2 168.9-68.2H805v100.4c0 16.2 13.6 26.2 26.2 26.2 5.5 0 10.8-1.8 15.4-5.2l165.9-169.1c15.2-15.5 15.1-40.7-0.2-56L846.4 48.1c-4.5-3.3-9.8-5.1-15.2-5.1-6.7 0-13.3 2.7-18.3 7.3-3.6 3.4-8 9.5-8 18.8V186.4h-10.4c-84.7 0-162.5 29-237.7 88.7-67.6 53.7-123.6 124.9-169.4 187.6-4.3 5.9-8.7 11.9-12.9 17.7C293.4 591.6 217 696.5 97.1 696.5H65.8C29.5 696.5 0 726 0 762.2 0 798.5 29.5 828 65.8 828H97c181.6 0 287.3-144.6 380.6-272.2l9.7-13.3c38.5-52.6 85-112.3 138.3-156.3zM64.8 319.4h1.6c9.2 0.1 19.6 0.2 31 0.5 75.8 1.6 124.6 32.7 172.2 79.6l17.8-24.1 5-6.9c17.4-23.8 35.4-48.3 54.7-72.9-78.1-73-157.7-107.1-250.2-107.1H65.3C29.3 188.5 0 217.9 0 254c0 35.7 29 65.1 64.8 65.4zM1012.4 746.6l-166-165.9c-4.6-3.3-9.8-5.1-15.3-5.1-6.7 0-13.3 2.7-18.2 7.3-3.6 3.4-8 9.5-8 18.8v100.5h-10.4c-66.7 0-140.1-34.7-198.6-93.5-3 4.1-5.9 8-8.7 11.7L586 622c-21.5 29.4-43.7 59.7-68.3 90.2 79.3 77.2 179.7 121.3 276.8 121.3h10.4V950.6c0 16.2 13.7 26.2 26.3 26.2 5.5 0 10.8-1.8 15.4-5.2l165.9-169.3c15.4-15.3 15.3-40.4-0.1-55.7z"
          fill="#ffffff"></path>
</svg>