<svg class="icon" viewBox="0 0 1024 1024" version="1.1" xmlns="http://www.w3.org/2000/svg"
     width="16" height="16">
    <path d="M574.577778 739.555556V381.155556c0-39.822222 62.577778-39.822222 62.577778 0V739.555556c5.688889 39.822222-62.577778 39.822222-62.577778 0z m-193.422222 0V381.155556c0-39.822222 62.577778-39.822222 62.577777 0V739.555556c5.688889 39.822222-62.577778 39.822222-62.577777 0z m551.822222-517.688889h-164.977778V159.288889c0-51.2-45.511111-96.711111-96.711111-96.711111H347.022222c-28.444444 0-51.2 11.377778-68.266666 28.444444-17.066667 17.066667-28.444444 45.511111-28.444445 68.266667v62.577778H85.333333C45.511111 221.866667 45.511111 284.444444 85.333333 284.444444h847.644445c45.511111 0 45.511111-62.577778 0-62.577777zM318.577778 153.6c0-17.066667 17.066667-34.133333 34.133333-34.133333h324.266667c17.066667 0 34.133333 11.377778 34.133333 34.133333v62.577778H318.577778V153.6zM739.555556 967.111111H284.444444c-28.444444 0-51.2-11.377778-68.266666-28.444444-17.066667-17.066667-28.444444-45.511111-28.444445-68.266667V381.155556c0-17.066667 17.066667-34.133333 34.133334-34.133334s34.133333 11.377778 34.133333 34.133334v489.244444c0 17.066667 17.066667 34.133333 34.133333 34.133333h455.111111c17.066667 0 34.133333-17.066667 34.133334-34.133333V386.844444c0-39.822222 62.577778-39.822222 62.577778 0v489.244445c-5.688889 45.511111-45.511111 91.022222-102.4 91.022222z"
          fill="#FFFFFF"></path>
</svg>