<svg class="icon" viewBox="0 0 1024 1024" version="1.1" xmlns="http://www.w3.org/2000/svg"
     width="16" height="16">
    <path d="M929.792 828.416q28.672 32.768 31.232 57.344t-18.944 48.128Q917.504 961.536 887.808 960t-57.344-24.064L658.432 770.048q-46.08 29.696-98.816 46.08t-111.104 16.384q-79.872 0-149.504-30.208t-121.856-82.432T94.72 598.016 64.512 448.512 94.72 299.008t82.432-121.856T299.008 94.72t149.504-30.208T598.016 94.72t121.856 82.432 82.432 121.856 30.208 149.504q0 60.416-17.408 114.688t-49.152 100.352l33.792 33.792q24.576 24.576 51.712 51.2t49.664 50.176 28.672 29.696zM452.608 704.512q53.248 0 100.352-19.968t81.92-54.784 54.784-81.92 19.968-100.352-19.968-100.352-54.784-81.92-81.92-54.784-100.352-19.968-100.352 19.968-81.92 54.784-54.784 81.92-19.968 100.352 19.968 100.352 54.784 81.92 81.92 54.784 100.352 19.968z"
          fill="#ffffff"></path>
</svg>