<svg class="icon" viewBox="0 0 1024 1024" version="1.1" xmlns="http://www.w3.org/2000/svg"
     width="16" height="16">
    <path d="M512 665.6a153.6 153.6 0 1 1 153.6-153.6 153.6 153.6 0 0 1-153.6 153.6m382.976-64a102.4 102.4 0 0 1 0-179.712 51.2 51.2 0 0 0 19.456-71.68l-54.784-88.576a51.2 51.2 0 0 0-68.096-18.432L768 256a102.4 102.4 0 0 1-151.04-90.112V153.6a51.2 51.2 0 0 0-51.2-51.2H457.216a51.2 51.2 0 0 0-51.2 51.2v12.288A102.4 102.4 0 0 1 256 256l-23.04-12.288a51.2 51.2 0 0 0-68.096 18.432L110.08 350.208a51.2 51.2 0 0 0 19.456 71.68 102.4 102.4 0 0 1 0 179.712 51.2 51.2 0 0 0-19.456 71.68l54.784 88.576a51.2 51.2 0 0 0 68.096 18.432L256 768a102.4 102.4 0 0 1 151.04 89.6V870.4a51.2 51.2 0 0 0 51.2 51.2h109.056a51.2 51.2 0 0 0 51.2-51.2v-12.288A102.4 102.4 0 0 1 768 768l23.04 12.288a51.2 51.2 0 0 0 68.096-18.432l54.784-88.576a51.2 51.2 0 0 0-19.456-71.68"
          fill="#ffffff"></path>
</svg>