<svg class="icon" viewBox="0 0 1024 1024" version="1.1" xmlns="http://www.w3.org/2000/svg"
     width="20" height="20">
    <path d="M213.333333 403.626667h106.666667l221.354667-185.6a21.333333 21.333333 0 0 1 34.645333 16.64v551.253333a21.333333 21.333333 0 0 1-34.645333 16.64L320 616.96H213.333333a42.666667 42.666667 0 0 1-42.666666-42.666667v-128a42.666667 42.666667 0 0 1 42.666666-42.666666z m21.333334 64v85.333333h107.776L512 697.173333V323.498667L342.442667 467.626667H234.666667zM785.365333 684.032a20.053333 20.053333 0 0 1-28.970666 0l-14.933334-14.933333c-8.618667-8.618667-8.106667-22.698667-0.042666-31.872a191.274667 191.274667 0 0 0 47.914666-126.890667c0-48.64-18.090667-93.098667-47.914666-126.933333-8.106667-9.173333-8.533333-23.253333 0.085333-31.872l14.890667-14.933334a20.053333 20.053333 0 0 1 29.013333 0A255.104 255.104 0 0 1 853.333333 510.336a255.104 255.104 0 0 1-67.968 173.696zM694.186667 594.005333c-7.253333 8.405333-20.053333 7.808-27.861334-0.085333l-13.909333-13.866667c-9.301333-9.301333-7.68-24.789333-0.725333-35.968a63.701333 63.701333 0 0 0 0-67.541333c-6.912-11.178667-8.533333-26.666667 0.725333-35.968l13.909333-13.866667c7.850667-7.850667 20.608-8.490667 27.861334-0.085333 19.413333 22.442667 31.146667 51.712 31.146666 83.712s-11.733333 61.226667-31.146666 83.669333z"
          fill="#ffffff"></path>
</svg>