<svg class="icon" viewBox="0 0 1024 1024" version="1.1" xmlns="http://www.w3.org/2000/svg"
     width="16" height="16">
    <path d="M727.013 511.999c0 172.83-74.72 329.054-194.914 441.249l42.145 70.75c1.535-1.44 3.105-2.75 4.64-4.19 294.814-280.449 294.814-735.168 0-1015.615-1.565-1.44-3.135-2.785-4.64-4.192l-42.175 70.752C652.293 182.912 727.013 339.134 727.013 511.999zM223.974 660.188l40.29 68.93c60.06-54.88 97.63-131.84 97.63-217.152 0-85.28-37.57-162.207-97.63-217.087l-40.29 68.927c41.47 37.12 67.49 89.727 67.49 148.16C291.464 570.428 265.444 623.038 223.974 660.188zM375.559 219.584c80.225 74.08 130.145 177.662 130.145 292.382 0 114.752-49.92 218.367-130.145 292.447l45.345 73.76c1.535-1.405 3.165-2.75 4.67-4.19 101.63-96.705 157.6-225.279 157.6-361.984 0-136.735-55.97-265.312-157.6-361.984-1.505-1.44-3.135-2.75-4.64-4.19L375.559 219.584z"
          fill="#ffffff"></path>
</svg>