<svg class="icon" viewBox="0 0 1024 1024" version="1.1" xmlns="http://www.w3.org/2000/svg"
     width="20" height="20">
    <path d="M320 403.626667H213.333333a42.666667 42.666667 0 0 0-42.666666 42.666666v128a42.666667 42.666667 0 0 0 42.666666 42.666667h106.666667l221.354667 185.6a21.333333 21.333333 0 0 0 34.645333-16.64V234.666667a21.333333 21.333333 0 0 0-34.645333-16.64L320 403.626667z m-85.333333 149.333333v-85.333333h107.776L512 323.541333v373.674667l-169.557333-144.213333H234.666667zM617.045333 443.52l68.949334 68.949333-68.949334 68.949334a21.333333 21.333333 0 0 0 0 30.165333l15.104 15.104a21.333333 21.333333 0 0 0 30.165334 0l68.949333-68.949333 68.949333 68.949333a21.333333 21.333333 0 0 0 30.165334 0l15.104-15.104a21.333333 21.333333 0 0 0 0-30.165333L776.533333 512.469333l68.949334-68.949333a21.333333 21.333333 0 0 0 0-30.165333l-15.104-15.104a21.333333 21.333333 0 0 0-30.165334 0L731.306667 467.2l-68.949334-68.949333a21.333333 21.333333 0 0 0-30.165333 0l-15.104 15.104a21.333333 21.333333 0 0 0 0 30.165333z"
          fill="#ffffff"></path>
</svg>